<svg xmlns="http://www.w3.org/2000/svg" xmlns:xlink="http://www.w3.org/1999/xlink" viewBox="0 0 4680 3120"><defs><style>.cls-1{fill:none;}.cls-2,.cls-7{fill:#fff;}.cls-2{opacity:0;}.cls-3{fill:#edf1fd;}.cls-4{fill:#ad64f3;}.cls-5{fill:#dbc0f9;}.cls-6{fill:#683da6;}.cls-8{fill:#f46f5c;}.cls-9{fill:#fed150;}.cls-10{fill:#ffe984;}.cls-11{opacity:0.3;}.cls-12{fill:#f3a43d;}.cls-13{fill:#443e3e;}.cls-14{fill:#2b2626;}.cls-15{clip-path:url(#clip-path);}.cls-16{fill:#1f2970;}.cls-17{fill:#5c6aad;}.cls-18{clip-path:url(#clip-path-2);}.cls-19{fill:#e5e5e5;}.cls-20{fill:#f5705d;}.cls-21{clip-path:url(#clip-path-3);}.cls-22{opacity:0.4;}.cls-23{fill:#e24b3b;}.cls-24{opacity:0.5;}.cls-25{fill:#ffbab3;}.cls-26{clip-path:url(#clip-path-4);}.cls-27{opacity:0.8;}.cls-28{fill:#f5ae9a;}.cls-29{clip-path:url(#clip-path-5);}.cls-30{fill:#3d9378;}.cls-31{fill:#58b69b;}.cls-32{clip-path:url(#clip-path-6);}.cls-33{clip-path:url(#clip-path-7);}.cls-34{fill:#dd8c79;}.cls-35{fill:#ffccc0;}.cls-36{fill:#da8775;}.cls-37{fill:#6b260e;}.cls-38{fill:#f27864;}.cls-39{fill:#fca15e;}.cls-40{fill:#ff8548;}.cls-41{clip-path:url(#clip-path-8);}.cls-42{fill:#c17b53;}.cls-43{clip-path:url(#clip-path-9);}.cls-44{fill:#a55e3c;}.cls-45{fill:#854b25;}.cls-46{clip-path:url(#clip-path-10);}.cls-47{clip-path:url(#clip-path-11);}.cls-48{fill:#101947;}.cls-49{fill:#8054c6;}.cls-50{fill:#3d4ea0;}.cls-51{fill:#060606;}.cls-52{clip-path:url(#clip-path-12);}.cls-53{clip-path:url(#clip-path-13);}.cls-54{fill:#b6c6ef;}.cls-55{fill:#94ace0;}.cls-56{fill:#fefefe;}.cls-57{fill:#98afe2;}</style><clipPath id="clip-path"><path class="cls-1" d="M1466.84,769.32s32.74-32.74,60.86-30.22,47.41,41.13,83.51,67.15,21,81.44,0,100.31-42.92,50.77-21,81,38.55,83.1-16.37,86.45S1461,1132.75,1461,1132.75L1336.74,1048s-31.89-14.26,0-54.55,5-43.54,10.92-70.45,55.39-29,45.32-62.38S1406.41,747.49,1466.84,769.32Z"/></clipPath><clipPath id="clip-path-2"><polygon class="cls-1" points="1629 1126.63 1533.47 1016.31 1417.58 1015.59 1352.91 1126.87 1407.94 1495.75 1623.63 1495.56 1629 1126.63"/></clipPath><clipPath id="clip-path-3"><polygon class="cls-1" points="1311.1 1564.13 1152.6 2454.55 1334.02 2454.4 1520.31 1656 1465.06 2464.37 1648.49 2464.22 1699.41 1525.83 1615.86 1411.3 1352.64 1418.24 1311.1 1564.13"/></clipPath><clipPath id="clip-path-4"><path class="cls-1" d="M1483,1497.83l-27.57,85a23.57,23.57,0,0,1-34.2,13.15l-136.18-78.5,59-89.8-78.18-275.57a78.94,78.94,0,0,1,46.82-94.91l30.54-12.13,74.31-29.51,45.85,281.15,23.81,145.91A117.87,117.87,0,0,1,1483,1497.83Z"/></clipPath><clipPath id="clip-path-5"><path class="cls-1" d="M1849.25,1364.41a73,73,0,0,1-126,50.32l-64.55-68-1.11,39.69c44.38,72.58,99,204.5,99,204.5l-137.32.13a30.34,30.34,0,0,1-30.19-27.25l-29.7-292.15-26-255.42,75.2,29.67,23.65,9.34a139.37,139.37,0,0,1,65.81,53.9l139.42,215.65A72.82,72.82,0,0,1,1849.25,1364.41Z"/></clipPath><clipPath id="clip-path-6"><path class="cls-1" d="M1274.48,1349.69l-18.68,33,118.3,165-78.7,86.41-164.84-153a109.39,109.39,0,0,1-22.69-130.58L1218,1138.35a165.57,165.57,0,0,1,85.85-77.62l40.12-15.92h0A545,545,0,0,1,1274.48,1349.69Z"/></clipPath><clipPath id="clip-path-7"><path class="cls-1" d="M1415.68,950.6c11.08,6.66,24,7.12,34.15,2.36l-10.89,51.26-19.78,11.4,43.58,89.14h53.7l11.24-73.22a74.5,74.5,0,0,1-12.13-9c-1-1-1.46-3.15-1.5-6.05-.09-5,1-12.25,2.3-18.9h.09a64.59,64.59,0,0,0,71.14-56.85l9.9-88.72A26.06,26.06,0,0,0,1581.1,825c-3.17.17-6.06,2.4-7.72,5.17-1.84,3-2.5,6.61-3.19,10.08-3,15.3-8.16,31.67-21.09,40.41-11,7.42-25.11,7.65-38.37,7.61,15-8.13,23.94-25.72,22.74-42.6a1.57,1.57,0,0,0-3.09-.22,43.57,43.57,0,0,1-15.25,23.34c-10,7.74-23,10.67-35.6,11.85a134.2,134.2,0,0,1-20.84.33l-2.21,19.81a40.22,40.22,0,0,0-7.37-5.76c-16.9-10.17-38.07-6-47.3,9.37S1398.79,940.42,1415.68,950.6Z"/></clipPath><clipPath id="clip-path-8"><polygon class="cls-1" points="2503.59 2390.08 2409.61 2569.01 2265.51 2469.33 2355.58 2301.78 2503.59 2390.08"/></clipPath><clipPath id="clip-path-9"><polygon class="cls-1" points="3151.11 1966.38 2845.9 2068.6 2929.46 2471.12 2754.11 2505.49 2604.7 2027.61 2758.3 1893.76 3050.13 1887.81 3151.11 1966.38"/></clipPath><clipPath id="clip-path-10"><path class="cls-1" d="M3275,1771.73s22.29,137.52-73.33,201.25-283.62,63.33-352,39.83-164.93-44.58-197.11,21.73,9.9,137.63-48.17,209.79c-29,36.11-126.72,200-126.72,200l-146.74-97.13s243.24-516.33,314-546.58S3275,1771.73,3275,1771.73Z"/></clipPath><clipPath id="clip-path-11"><path class="cls-1" d="M3086.63,1266.15s105,4.59,174.93,51.65,70.82,104.59,71.17,194.4S3303,1898.75,3303,1898.75l-383-122.12,23.7-37.4s-54.42,44.92-114.23,65.83-103.31-76.77-103.31-76.77,144.79-133.2,149.47-216.42C2878.27,1333.55,2943.8,1311.57,3086.63,1266.15Z"/></clipPath><clipPath id="clip-path-12"><path class="cls-1" d="M3111.61,1038.3c1.61-15.72-7.41-31.62-21-39.69s-31-8.64-45.72-3-26.94,17-35.08,30.58c-2.49,4.13-4.72,8.59-8.43,11.68-7.45,6.2-18.47,5.16-27.42,8.9a27.27,27.27,0,0,0-15.9,19.21c-1.46,6.94-.16,14.36-2.5,21.06-3.37,9.64-13.17,15.16-21.82,20.58-2.27,1.42-4.63,3-5.65,5.5-1.35,3.23.09,7.1,2.6,9.55s5.9,3.74,9.22,4.85a131.33,131.33,0,0,0,24.29,5.55c5.14.66,10.35,1,15.36,2.36,5.52,1.47,10.67,4.07,15.88,6.42,8.45,3.81,17.17,7,25.88,10.16l25.34,9.25c8.89,3.24,17.81,6.5,27,8.64,15.27,3.55,31.07,4,46.74,4,9.32,0,18.87-.14,27.58-3.45,18.79-7.14,29.49-27.28,33.82-46.92,4.14-18.7,3.88-38.85-3.86-56.38s-23.7-32-42.63-34.92c-7.6-1.2-15.74-.46-22.33,3.5Z"/></clipPath><clipPath id="clip-path-13"><path class="cls-1" d="M2964.6,1124.77s17.87,93.14,27.61,113.67,39,37.83,61.06,27.59c-.39,12.36-6.51,22.07-12,26.84-2.27,2-4.45,3.1-6,3.2-5.48.38,1.45,58.53,27.05,61.51s68.45-56.89,109.11-63.83c-12.29-26.61-26.85-73.52-17.1-103.28.25-.78.45-1.56.65-2.34a51.66,51.66,0,0,0,18.83-19.9c11.94-22.1,6.76-48.06-11.6-58-16.9-9.14-39-1.5-51.77,17-11.26.55-29.64-2.41-45.11-23.15-33.82,14-38.1-17.59-53.69-12.06S2992.35,1128.7,2964.6,1124.77Z"/></clipPath></defs><title>07</title><g id="_07" data-name="07"><rect id="_07-2" data-name="07" class="cls-2" width="4680" height="3120"/><ellipse class="cls-3" cx="1292.37" cy="2640.78" rx="442.07" ry="63.4"/><ellipse class="cls-3" cx="3397.07" cy="2567.05" rx="432.63" ry="76.67"/><ellipse class="cls-3" cx="2613.99" cy="2589.07" rx="326.18" ry="51.71"/><path class="cls-3" d="M3105.35,551.76h0C2950.91,404.09,2737.62,336.15,2527,367.51l-532.67,79.28a688,688,0,0,1-233.57-5.33l-14.26-2.79C1456.78,381.94,1163.2,516.22,1015,773.23l-46.64,80.88c-133.2,231-123.8,518.29,24.22,739.95l78.18,117.06c131.32,196.66,352.77,312.75,588.05,308.28l886.5-16.84c201.28-3.82,488.86-357.9,635.09-557.34,198.83-271.2,172.5-648.8-66.61-885.25Q3109.61,555.83,3105.35,551.76Z"/><rect class="cls-4" x="1419.1" y="548.07" width="1521.11" height="1034.64" rx="75.69"/><rect class="cls-5" x="2725.41" y="1160.46" width="70.57" height="325.4"/><rect class="cls-5" x="2608.96" y="1253.82" width="70.57" height="232.04"/><rect class="cls-5" x="2492.51" y="1111.69" width="70.57" height="374.18"/><rect class="cls-5" x="2376.05" y="1170.36" width="70.57" height="315.5"/><rect class="cls-5" x="2259.44" y="1015.55" width="70.57" height="470.31"/><rect class="cls-5" x="2142.98" y="1108.5" width="70.57" height="377.37"/><rect class="cls-5" x="2026.53" y="1124.55" width="70.57" height="361.31"/><rect class="cls-5" x="1910.08" y="899.13" width="70.57" height="586.74"/><rect class="cls-5" x="1793.54" y="1208.57" width="70.57" height="277.29"/><rect class="cls-5" x="1677.09" y="1073.47" width="70.57" height="412.39"/><rect class="cls-5" x="1560.47" y="680.6" width="70.57" height="805.27"/><polygon class="cls-6" points="2182.88 1070.22 2170.56 1070.22 2170.56 1098.11 2142.98 1098.11 2142.98 1220.92 2170.56 1220.92 2170.56 1250.71 2182.88 1250.71 2182.88 1220.92 2213.55 1220.92 2213.55 1098.11 2182.88 1098.11 2182.88 1070.22"/><polygon class="cls-7" points="2182.88 1279.6 2170.56 1279.6 2170.56 1307.48 2142.98 1307.48 2142.98 1430.29 2170.56 1430.29 2170.56 1460.08 2182.88 1460.08 2182.88 1430.29 2213.55 1430.29 2213.55 1307.48 2182.88 1307.48 2182.88 1279.6"/><polygon class="cls-7" points="2765.31 1303.91 2752.99 1303.91 2752.99 1331.8 2725.41 1331.8 2725.41 1454.6 2752.99 1454.6 2752.99 1484.39 2765.31 1484.39 2765.31 1454.6 2795.98 1454.6 2795.98 1331.8 2765.31 1331.8 2765.31 1303.91"/><polygon class="cls-6" points="2765.31 1080.12 2752.99 1080.12 2752.99 1108 2725.41 1108 2725.41 1230.81 2752.99 1230.81 2752.99 1260.6 2765.31 1260.6 2765.31 1230.81 2795.98 1230.81 2795.98 1108 2765.31 1108 2765.31 1080.12"/><polygon class="cls-7" points="2066.43 882.71 2054.11 882.71 2054.11 951.52 2026.53 951.52 2026.53 1254.59 2054.11 1254.59 2054.11 1328.11 2066.43 1328.11 2066.43 1254.59 2097.1 1254.59 2097.1 951.52 2066.43 951.52 2066.43 882.71"/><polygon class="cls-7" points="2299.34 872.26 2287.02 872.26 2287.02 941.08 2259.43 941.08 2259.43 1244.14 2287.02 1244.14 2287.02 1317.66 2299.34 1317.66 2299.34 1244.14 2330 1244.14 2330 941.08 2299.34 941.08 2299.34 872.26"/><polygon class="cls-7" points="1949.98 810.02 1937.66 810.02 1937.66 898.07 1910.08 898.07 1910.08 1285.84 1937.66 1285.84 1937.66 1379.9 1949.98 1379.9 1949.98 1285.84 1980.64 1285.84 1980.64 898.07 1949.98 898.07 1949.98 810.02"/><polygon class="cls-7" points="2532.41 1055.95 2520.09 1055.95 2520.09 1112.91 2492.51 1112.91 2492.51 1363.78 2520.09 1363.78 2520.09 1424.64 2532.41 1424.64 2532.41 1363.78 2563.07 1363.78 2563.07 1112.91 2532.41 1112.91 2532.41 1055.95"/><polygon class="cls-6" points="2648.86 955.35 2636.54 955.35 2636.54 1012.32 2608.96 1012.32 2608.96 1263.19 2636.54 1263.19 2636.54 1324.05 2648.86 1324.05 2648.86 1263.19 2679.53 1263.19 2679.53 1012.32 2648.86 1012.32 2648.86 955.35"/><polygon class="cls-6" points="2415.95 823.63 2403.64 823.63 2403.64 911.68 2376.05 911.68 2376.05 1299.44 2403.64 1299.44 2403.64 1393.51 2415.95 1393.51 2415.95 1299.44 2446.62 1299.44 2446.62 911.68 2415.95 911.68 2415.95 823.63"/><polygon class="cls-7" points="1716.99 893.49 1704.67 893.49 1704.67 949.16 1677.09 949.16 1677.09 1194.35 1704.67 1194.35 1704.67 1253.82 1716.99 1253.82 1716.99 1194.35 1747.66 1194.35 1747.66 949.16 1716.99 949.16 1716.99 893.49"/><polygon class="cls-6" points="1833.44 1073.66 1821.12 1073.66 1821.12 1129.33 1793.54 1129.33 1793.54 1374.51 1821.12 1374.51 1821.12 1433.99 1833.44 1433.99 1833.44 1374.51 1864.11 1374.51 1864.11 1129.33 1833.44 1129.33 1833.44 1073.66"/><polygon class="cls-7" points="1600.37 619.96 1588.05 619.96 1588.05 675.63 1560.47 675.63 1560.47 920.82 1588.05 920.82 1588.05 980.3 1600.37 980.3 1600.37 920.82 1631.04 920.82 1631.04 675.63 1600.37 675.63 1600.37 619.96"/><polygon class="cls-6" points="1600.37 1073.66 1588.05 1073.66 1588.05 1129.33 1560.47 1129.33 1560.47 1374.51 1588.05 1374.51 1588.05 1433.99 1600.37 1433.99 1600.37 1374.51 1631.04 1374.51 1631.04 1129.33 1600.37 1129.33 1600.37 1073.66"/><polygon class="cls-5" points="1747.75 718.72 1768.72 718.72 1768.72 788.07 1807.49 788.07 1807.49 718.72 1828.45 718.72 1788.1 648.83 1747.75 718.72"/><polygon class="cls-5" points="2128.26 788.21 2138.75 788.21 2138.75 822.88 2158.13 822.88 2158.13 788.21 2168.61 788.21 2148.44 753.26 2128.26 788.21"/><polygon class="cls-5" points="2241.86 703.42 2260.51 703.42 2260.51 765.11 2294.99 765.11 2294.99 703.42 2313.64 703.42 2277.75 641.26 2241.86 703.42"/><polygon class="cls-5" points="1993.19 708.19 1968.1 708.19 1968.1 753.09 1954.52 753.09 1980.64 798.33 2006.76 753.09 1993.19 753.09 1993.19 708.19"/><path class="cls-8" d="M2679.47,607.71c-83.47,0-151.1,68.67-151.07,153.3s67.71,153.23,151.18,153.2,151.1-68.67,151.07-153.3S2762.94,607.69,2679.47,607.71Z"/><path class="cls-9" d="M2716.31,620.35a142.56,142.56,0,0,0-65.39-2c-57.12,11.73-102,57.86-112.49,116.14a149.74,149.74,0,0,0-2.35,26.46,147.22,147.22,0,0,0,5.45,39.83c17.11,61,72.44,105.61,138,105.6,79.23,0,143.42-65.19,143.4-145.52C2823,693.5,2777.7,636.8,2716.31,620.35Z"/><ellipse class="cls-8" cx="2679.53" cy="760.96" rx="113.04" ry="114.63"/><path class="cls-10" d="M2781.56,729a110.27,110.27,0,0,0-17.64-32,108.77,108.77,0,0,0-38.77-30.8A106.75,106.75,0,0,0,2679.5,656c-59.8,0-108.28,49.2-108.26,109.83a110.17,110.17,0,0,0,46,89.77,107.11,107.11,0,0,0,56.08,19.82q3.13.18,6.29.18c59.79,0,108.26-49.21,108.23-109.84a109.59,109.59,0,0,0-.79-13.27A108.37,108.37,0,0,0,2781.56,729Z"/><path class="cls-8" d="M2705,758.08v-.36c13.79-5.16,20.14-15.48,20.13-26.51a27,27,0,0,0-14.7-24.29A45.74,45.74,0,0,0,2693,701V682.15h-12.9V700c-1.84,0-3.77-.08-5.79-.08-3,0-6,.06-9,.16V682.16h-12.9v18.64a125.4,125.4,0,0,0-13.89,1.72l0,121.83c3.43.52,8.09,1,13.9,1.38V842h12.9V826.18l3.15,0c4.13,0,8-.13,11.59-.36V842h12.9V824.37c10.59-1.85,18.2-5.06,23.6-9.42,7.62-6.26,12.69-15.09,12.69-26.32C2729.34,772.62,2719,761.94,2705,758.08Zm-39-37a72.8,72.8,0,0,1,11.79-.74c12.52,0,19.61,5,19.61,14.35,0,9.2-7.8,15.27-22.31,15.28H2666Zm10.74,84.29A83.31,83.31,0,0,1,2666,805v-35h9.43c13.79,0,24.87,5,24.87,17.46C2700.32,800.6,2689.25,805.39,2676.73,805.4Z"/><g class="cls-11"><path class="cls-12" d="M2725.15,666.19,2584.42,818.32a109.8,109.8,0,0,0,32.78,37.27L2763.92,697A108.77,108.77,0,0,0,2725.15,666.19Z"/></g><g class="cls-11"><path class="cls-12" d="M2649.82,871.39a107,107,0,0,0,23.46,4L2787,752.48a108.37,108.37,0,0,0-5.45-23.5Z"/></g><path class="cls-13" d="M1420.36,848.88c-2.07,2.74-2.5,6.25-3.29,9.64a14.07,14.07,0,0,0,1.29.64A10,10,0,0,0,1420.36,848.88Z"/><path class="cls-13" d="M1369.64,794.46a34.51,34.51,0,0,0-9.81,12.15,28.62,28.62,0,0,0,32.71,39.88c2.53-.61,5.06-1.58,7.65-1.35,7.3.65,10.57,9.73,16.88,13.38.79-3.39,1.22-6.9,3.29-9.64a10,10,0,0,1-2,10.28,14.07,14.07,0,0,1-1.29-.64,21.27,21.27,0,0,1-1.33,4.14c-2.39,5.13-7.91,8.28-13.5,9.2s-11.31-.07-16.85-1.29a208.32,208.32,0,0,1-27.8-8.16c8.13,11.41,17.94,23.86,31.88,25.31,12.29,1.28,24.22-7.25,29.43-18.46s4.6-24.4,1.08-36.24l8.08-34.18C1413.5,783,1386.39,781,1369.64,794.46Z"/><path class="cls-14" d="M1422.23,778.87c-7.33-3.52-15.54-4.81-23.66-5.18-15.06-.7-30.85,1.84-43.1,10.62s-20,24.81-16,39.35c2.13,7.73,7.28,14.38,13.47,19.49,5.69,4.7,12.53,8.31,19.89,8.9a26.84,26.84,0,0,0,27.08-36.71c.6,6.32-1.79,13.11-6.92,16.86s-13,3.7-17.47-.83c-4-4-4.48-10.66-2.22-15.85s6.85-9.08,11.86-11.72a41.79,41.79,0,0,1,44.54,4.19l9-11.94C1435.94,788.39,1429.55,782.4,1422.23,778.87Z"/><path class="cls-13" d="M1611.21,806.25c-36.1-26-55.4-64.63-83.51-67.15s-60.86,30.22-60.86,30.22c-60.43-21.83-83.93,57.91-73.86,91.27s-39.45,35.47-45.32,62.38,21,30.16-10.92,70.45,0,54.55,0,54.55l124.3,84.78s57.84-55.4,112.76-58.76,38.24-56.23,16.37-86.45,0-62.11,21-81S1647.3,832.27,1611.21,806.25Z"/><g class="cls-15"><path class="cls-14" d="M1586.07,822.25a21.27,21.27,0,0,0-23.52,5.64c-4.81,5.57-6.29,13.18-9,20a57.35,57.35,0,0,1-42.66,34.79,45.34,45.34,0,0,0,76.86-24.63l11.16-15.33A21.3,21.3,0,0,0,1586.07,822.25Z"/><path class="cls-14" d="M1521.71,832c-4.23.45-7.4,3.95-10.24,7.12-10.44,11.63-23.42,22.51-39,24-15.9,1.56-30.88-6.89-44.62-15-2.34,13.09,7.7,27.11,20.86,29.1l-20.54-1a7.45,7.45,0,0,0-3.16.28c-4,1.56-2.55,7.59,0,11a51,51,0,0,0,40.22,20.42c7.23,0,14.77-1.68,20.2-6.46,3.33-2.94,5.65-6.82,8.19-10.46A89.07,89.07,0,0,1,1525.55,863l2-2.46c2.82-5.32,5.73-11,5.41-17S1527.7,831.31,1521.71,832Z"/><path class="cls-14" d="M1383.66,1055.44l3.27,1.18c-1.07-.39-2.14-.81-3.22-1.25A.18.18,0,0,1,1383.66,1055.44Z"/><path class="cls-14" d="M1389,922.22c-6,5.37-10.78,13.46-8.72,21.26,1.79,6.76,8.22,11.5,10.15,18.22,1.63,5.64-.24,11.8-3.46,16.7s-7.69,8.84-11.9,12.93c-5.47,5.32-10.65,11.1-14.09,17.93s-5,14.82-3,22.2c3.17,11.73,14.26,19.24,25.69,23.91,6.48-11.63,23-11.94,34.36-18.9-6.52,0-13.22.07-19.28-2.31s-11.42-7.77-11.74-14.27c-.36-7.19,5.29-13.28,11.34-17.18s13-6.64,17.95-11.84A25.21,25.21,0,0,0,1421.1,964c-4.07-9.33-14-16.83-13.06-27,.66-7,6.47-12.26,12.29-16.17s12.31-7.43,15.85-13.47h-28C1402.43,913.11,1395.06,916.84,1389,922.22Z"/><path class="cls-14" d="M1551.51,1001.94c-5.64-14.62,4-30.48,4.58-46.14a9.45,9.45,0,0,0-.8-4.89c-1.28-2.37-4.08-3.41-6.66-4.2a199.65,199.65,0,0,0-80.13-7.63l-27,.55c5.48,9.76,7.88,21.89,3.66,32.26-3.54,8.72-11.11,15-16.94,22.42s-10,17.76-5.54,26c5,9.37,17.73,10.66,28.37,10.6,14.89-.07,30.17-.44,44.2,4.56,10.82,3.86,20.63,10.84,32,12.49-.84-5,5.14-8.17,10.08-9.19a75.87,75.87,0,0,1,26.37-.76c2.94.43,6.46.83,8.37-1.44s.94-5.66-.48-8.21C1566.21,1018.66,1555.52,1012.33,1551.51,1001.94Z"/><path class="cls-14" d="M1474.87,830.21c-12.52-6.58-23.24-17.5-27.16-31.08s0-29.75,11.37-38.21l1.56-7.39a82,82,0,0,0-60,29.58c-4.34,5.3-8,11.26-9.74,17.89s-1.2,14,2.38,19.85c4,6.55,11.44,10.43,19,11.9s15.33.83,23,.19c-5.91-4.22-11.45-9.32-14.53-15.88s-3.32-14.83.88-20.75A82.65,82.65,0,0,0,1474.87,830.21Z"/></g><path class="cls-16" d="M1284,2562.63l-14.27,142.15s29.94,6,33.14-3.58,36.75-148.27,41.75-161.18S1284,2562.63,1284,2562.63Z"/><path class="cls-7" d="M1341.4,2530.42l-94.07,45.85-95,82.72s-130.13-13-136.42-17.32c-2-1.41-3-1.53-3.4-1-.8,1-.34,5.63,2,9.11,4.88,7.39,16.22,15.55,31.93,22.74,18.5,8.45,63.16,27.35,107.42,21,17.68-2.54,33.58-25.17,46.19-41.34,3-3.81,6-7.75,9.36-11.53,1.88-2.13,3.82-4.44,5.88-6.88,17-20.21,43.34-45.22,98-58.75a49.43,49.43,0,0,0,28.24-21.13C1349.12,2536.24,1341.4,2530.42,1341.4,2530.42Z"/><path class="cls-16" d="M1322.2,2406.3c-5.94-1.57-26.5,3.61-43.73,24.92l-26.1-2.94c-23.61-20.46-50-32.28-87.5-27.43,4.05,17.16-1.12,55.06-1.12,55.06s5.39-36.71,0,0-21.5,98-47.32,120.05c-31.48,26.85-53.61,33-82.44,37.5-34.2,5.38-19.79,30.08-19.79,30.08s54.68,41,132.32,39.5c33.83-3.47,43.19-25.38,60.2-44.72s40-53.89,102.41-69.32c21.82-6.51,37.31-19.84,37.78-40.93.29-13.17-8.86-47.59-15.77-71.59C1329.39,2450.31,1324,2420.27,1322.2,2406.3Z"/><path class="cls-17" d="M1329.38,2448.58c-21.4,13.31-63.49,50.36-56.34,133.16a186.9,186.9,0,0,1,36.11-12.74c21.82-6.51,37.31-19.84,37.78-40.93.29-13.17-8.86-47.59-15.77-71.59C1330.74,2455,1330.11,2452.2,1329.38,2448.58Z"/><path class="cls-17" d="M1034,2613.46c-34.2,5.38-19.79,30.08-19.79,30.08s22.06,16.51,58,28.2c3.25-24.47-6.54-47.72-15.27-62.87A230,230,0,0,1,1034,2613.46Z"/><path class="cls-16" d="M1439.46,2544.53c2.09,13.69,4.87,156.36,5.91,166.4s31.58,10.66,31.58,10.66l16.81-141.87S1437.37,2530.84,1439.46,2544.53Z"/><path class="cls-7" d="M1738.42,2714.86c-7.08,2.87-136.93-12.58-136.93-12.58L1526.6,2601l-81.92-65.1s-8.81,4-5.13,22.88a49.48,49.48,0,0,0,23,26.74c50.42,25,70.73,55.14,83,78.54,1.48,2.83,2.88,5.51,4.25,8,2.42,4.41,4.57,8.92,6.65,13.29,8.82,18.5,19.45,44,36.16,50.34,41.84,15.76,89.53,7,109.42,2.71,16.9-3.62,29.73-9.14,36.1-15.3,3-2.9,4.45-7.33,3.89-8.47C1741.7,2714,1740.73,2713.93,1738.42,2714.86Z"/><path class="cls-16" d="M1726.83,2683.4c-27.16-10.66-47.45-21.42-72.38-54.43-20.45-27.08-23-90.44-20.24-127.45s0,0,0,0,3.14-38.13,10.82-54c-35.56-12.84-63.89-7-91.37,7.86l-26.12-2.77c-12.21-24.53-31.16-34-37.31-33.79-4.73,13.27-16.53,41.42-19.6,47.06-11.93,21.94-28.3,53.57-30.87,66.49-4.1,20.68,8.14,37.05,28,48.12,57.57,28.56,72.57,67.28,85,89.83s16.82,46,49.09,56.68c75.49,18.26,137.73-9.95,137.73-9.95S1759.06,2696.05,1726.83,2683.4Z"/><path class="cls-17" d="M1474.1,2458.55c-1.5,3.38-2.72,6-3.45,7.33-11.93,21.94-28.3,53.57-30.87,66.49-4.1,20.68,8.14,37.05,28,48.12a188.56,188.56,0,0,1,32.5,20.25C1525.2,2521.45,1492.12,2476.18,1474.1,2458.55Z"/><path class="cls-17" d="M1726.83,2683.4a231.58,231.58,0,0,1-21.41-9.44c-11.8,12.9-26.39,33.49-28.51,58.08,37.63-3.64,62.73-15,62.73-15S1759.06,2696.05,1726.83,2683.4Z"/><polygon class="cls-7" points="1417.58 1015.59 1352.91 1126.87 1407.94 1495.75 1623.63 1495.56 1629 1126.63 1533.47 1016.31 1417.58 1015.59"/><g class="cls-18"><path class="cls-19" d="M1661,1275.07c-29.54,15.81-67.2,15.27-96.28-1.38-12.48-7.15-24.48-17.35-38.87-17.31-14,0-25.78,9.82-38,16.71-21.72,12.25-47.44,16-72.35,14.72s-49.33-7.1-73.57-13L1308.76,1447c26.37,42.54,72.53,68.28,117.91,89.41,23.75,11,48.07,21.43,73.77,26.56s53.07,4.71,77.27-5.33c22.19-9.21,40.6-26.06,54.76-45.48a157.72,157.72,0,0,0,23.91-47.1c8.41-27.88,7.79-57.57,7.1-86.68Z"/></g><polygon class="cls-20" points="1352.64 1418.24 1311.1 1564.13 1152.6 2454.55 1334.02 2454.4 1520.31 1656 1465.06 2464.37 1648.49 2464.22 1699.41 1525.83 1615.86 1411.3 1352.64 1418.24"/><g class="cls-21"><g class="cls-22"><path d="M1494.61,1403.79a1576.28,1576.28,0,0,1-197.31-30.48,8.07,8.07,0,0,0-9.7,6.5l-36.89,212.77a8.08,8.08,0,0,0,8.12,9.45q97.79-1.72,195.57,2.42a26,26,0,0,0,26.84-21.86q13.68-84.6,20.73-170.09A8.09,8.09,0,0,0,1494.61,1403.79Z"/><path d="M1618.2,1374.41l-66.68,20.93c16,14.43,23.06,36.09,28.89,56.84,11.79,42,21.21,84.63,30.14,127.36A38.75,38.75,0,0,0,1651,1610.3q41.36-2.68,82.64-6.35c-5.05-24.34-18.86-45.78-31.8-67A1266.47,1266.47,0,0,1,1618.2,1374.41Z"/></g><path class="cls-23" d="M1520.31,2352.25V1656l-188.62,708.08a92.76,92.76,0,0,1-69.94,66.76l-109.15,23.71c89.26,84.61,495.89,9.67,495.89,9.67l-67.57-25A92.76,92.76,0,0,1,1520.31,2352.25Z"/><g class="cls-24"><polygon class="cls-25" points="1081.3 2475.65 1178.48 2494.84 1340.74 1579.02 1235.25 1612.35 1081.3 2475.65"/></g></g><g class="cls-11"><rect class="cls-7" x="1126.74" y="1973.76" width="978.17" height="4" transform="translate(-436.47 3493.18) rotate(-87.2)"/></g><g class="cls-11"><rect class="cls-7" x="831.67" y="1968.96" width="982.88" height="4" transform="translate(-852.58 2920.54) rotate(-79.71)"/></g><path class="cls-20" d="M1463.43,1296.73l-45.85-281.15-74.31,29.51-30.54,12.13a78.94,78.94,0,0,0-46.82,94.91l78.18,275.57-59,89.8,136.18,78.5a23.57,23.57,0,0,0,34.2-13.15l27.57-85a117.87,117.87,0,0,0,4.21-55.19Z"/><g class="cls-26"><g class="cls-27"><polygon class="cls-23" points="1359 1399.97 1317.1 1192.49 1363.61 996.71 1192.07 1145.93 1246.47 1287.35 1262.9 1533.31 1343.27 1472.27 1397.53 1460.08 1363.61 1424.64 1410.11 1416.72 1359 1399.97"/></g><path class="cls-23" d="M1438.74,1557.9c-59.08,15.6-195.86-10.17-195.86-10.17l252.5,80.73v-258.1C1495.13,1402.55,1491.07,1544.07,1438.74,1557.9Z"/><path class="cls-23" d="M1495.37,1363.86v6.5C1495.4,1366.2,1495.37,1363.86,1495.37,1363.86Z"/></g><g class="cls-27"><path class="cls-23" d="M1343.27,1045.09c20.18,65.9,55.45,175.75,120.16,251.64l-45.85-281.15Z"/></g><polygon class="cls-28" points="1317.1 1610.3 1410.11 1589.57 1374.1 1547.73 1317.1 1610.3"/><path class="cls-20" d="M1698.12,1109.17a139.37,139.37,0,0,0-65.81-53.9l-23.65-9.34-75.2-29.67,26,255.42,29.7,292.15a30.34,30.34,0,0,0,30.19,27.25l137.32-.13s-54.64-131.92-99-204.5l1.1-39.69,64.55,68a73,73,0,0,0,114.27-89.91Z"/><g class="cls-29"><g class="cls-27"><path class="cls-23" d="M1756.63,1591c-252.22.13-215.77-335.28-215.77-335.28l-77.43,419.21,266.13,23.6S1976.39,1590.83,1756.63,1591Z"/></g><path class="cls-23" d="M1845.71,1434c-88.38,1.22-121.67-58.67-146.3-94.52s13-120.39-40.69-157c31.63,63.85-4.15,97.25-4.15,97.25l4.15,67.09,102.68,149h102.71S1934.1,1432.77,1845.71,1434Z"/></g><g class="cls-27"><path class="cls-23" d="M1533.46,1016.26l26,255.42c50.56-61.18,52.4-168.82,49.24-225.75Z"/></g><polygon class="cls-30" points="1495.38 1363.87 1503.47 1363.87 1711.62 1363.68 1814.97 1066.41 1817.71 1058.51 1601.48 1058.69 1495.38 1363.87"/><polygon class="cls-31" points="1503.47 1363.87 1711.62 1363.68 1732.78 1302.82 1781.51 1162.62 1814.97 1066.41 1606.83 1066.6 1503.47 1363.87"/><g class="cls-24"><path class="cls-30" d="M1772.48,1142.28a15.18,15.18,0,0,0-6-4.22c-7.65-3.21-16.55-2.54-24.28.47s-14.46,8.11-20.56,13.72c-2.09,1.88-4.2,4-5,6.71-.68,2.35-.24,4.86.29,7.26,3.68,17.43,10.77,35.18,6.52,52.46-2,7.93-6.21,15.08-9.06,22.73a67.8,67.8,0,0,0-3.86,30.4c.6,5.69,2,11.38,4.88,16.29,4,6.68,10.34,11.25,17.38,14.72l48.73-140.21a142.24,142.24,0,0,1-5.53-13.12C1775.06,1147,1774.2,1144.35,1772.48,1142.28Z"/></g><path class="cls-20" d="M1274.48,1349.69a545,545,0,0,0,69.5-304.88h0l-40.12,15.92a165.57,165.57,0,0,0-85.85,77.62l-110.14,212.24a109.39,109.39,0,0,0,22.69,130.58l164.84,153,78.7-86.41-118.3-165Z"/><g class="cls-32"><g class="cls-24"><path class="cls-25" d="M1123.65,1407.62h0a71.3,71.3,0,0,1,5.38-27.16L1262.9,1056,1040,1219.08l-43.93,86.13L1071,1515.36l224.4,118.78L1140.82,1454A71.21,71.21,0,0,1,1123.65,1407.62Z"/></g><g class="cls-27"><polygon class="cls-23" points="1304.45 1287.98 1248.67 1376.71 1228.72 1363.86 1240.69 1387.09 1228.72 1422.99 1254 1400.03 1374.1 1544.28 1284.58 1383.1 1304.45 1287.98"/></g></g><path class="cls-28" d="M1581.1,825c-3.17.17-6.06,2.4-7.72,5.17-1.84,3-2.5,6.61-3.19,10.08-3,15.3-8.16,31.67-21.09,40.41-11,7.42-25.11,7.65-38.37,7.61,15-8.13,23.94-25.72,22.74-42.6a1.57,1.57,0,0,0-3.09-.22,43.57,43.57,0,0,1-15.25,23.34c-10,7.74-23,10.67-35.6,11.85a134.2,134.2,0,0,1-20.84.33l-2.21,19.81a40.22,40.22,0,0,0-7.37-5.76c-16.9-10.16-38.07-6-47.3,9.37s-3,36,13.87,46.19c11.08,6.66,24,7.12,34.15,2.36l-10.89,51.26-19.78,11.4,43.58,89.14h53.7l11.24-73.22a74.5,74.5,0,0,1-12.13-9c-1-1-1.46-3.15-1.5-6.05-.09-5,1-12.25,2.3-18.9h.09a64.59,64.59,0,0,0,71.14-56.85l9.9-88.72A26.06,26.06,0,0,0,1581.1,825Z"/><g class="cls-33"><path class="cls-34" d="M1591.4,810.54c-22.05-16.55-52.31-24-77.92-13.83-15,6-27.14,17.3-40.54,26.33l-26.43,57.46c19.61,9.19,44.69,5,60.27-10a44.14,44.14,0,0,1-17.5,23.16,63.53,63.53,0,0,0,77.25-40.53c2.45-7.14,4.76-15.94,12-18.07,6.14-1.79,13.37,2.36,18.86-.91,4.15-2.46,5.15-8.36,3.41-12.85S1595.25,813.44,1591.4,810.54Z"/><path class="cls-35" d="M1419.53,895.71a25.06,25.06,0,0,1,28.67-1.82l-41.9-38.23c-9.28,9-18.26,18.81-24.23,31.05s-8.63,27.32-4.7,40.64c3.25,11,10.58,19.74,18.58,26.68,9.82,8.51,21.63,15.08,33.82,14,7.28-.63,15.52-5.86,15.66-14.4-12.74,5.08-28.23-2-34.5-15.93S1408.51,904.73,1419.53,895.71Z"/><path class="cls-34" d="M1448.2,895.07l7.86,6.14A25.49,25.49,0,0,0,1448.2,895.07Z"/><path class="cls-35" d="M1439.46,1022.21c-.53-6.83,2.5-13.35,4.79-19.8a96.92,96.92,0,0,0,4.84-43.81l-62.71,53.12c17.45,40.14,37,82.76,74.34,105.6,5.57,3.41,11.67,6.36,18.18,6.68l-36.19-90.49C1441.25,1029.86,1439.77,1026.13,1439.46,1022.21Z"/></g><path class="cls-34" d="M1477.77,972.63c5.26,24.45,22,37.28,36.28,43.9-.09-5,1-12.25,2.3-18.9h.09S1491.06,989.36,1477.77,972.63Z"/><path class="cls-36" d="M1441.46,921.75a16.65,16.65,0,0,0-18.92-9.89,25.59,25.59,0,0,1,9.4,4.08,17.28,17.28,0,0,1,5.85,7.4,32.9,32.9,0,0,1,2.26,9.65c.33,3.42.35,7,.5,10.6a32.12,32.12,0,0,0,2.64-10.64,27.3,27.3,0,0,0-.19-5.63A21.29,21.29,0,0,0,1441.46,921.75Z"/><path class="cls-36" d="M1429.68,922.12a8.57,8.57,0,0,0-2.94,1.89,10.27,10.27,0,0,0-2.85,5.83,11,11,0,0,0,.74,6c.81-1.86,1.5-3.56,2.27-5.11a13.92,13.92,0,0,1,2.64-3.88,8.54,8.54,0,0,1,3.79-2.13,39,39,0,0,1,5.41-.93,9.57,9.57,0,0,0-5.72-2.2A8.49,8.49,0,0,0,1429.68,922.12Z"/><path class="cls-37" d="M1513.36,865.93c-20.72,1.62-24.89,14.27-25.34,15.27,1.33-.9,29.15-7.74,43.46-2.52C1531.59,879,1535.51,865.22,1513.36,865.93Z"/><path class="cls-37" d="M1488,881.27s0,0,0-.07S1488,881.26,1488,881.27Z"/><path class="cls-37" d="M1567.44,871.51c-10.44,1.34-4.11,9.64-4.16,9.44,5-4.56,21-2.24,20.91-1.88C1584.24,879.25,1578.05,870.82,1567.44,871.51Z"/><path class="cls-37" d="M1514.59,892.23c-3.74-.2-7,4.11-7.32,9.63s2.49,10.16,6.24,10.36,7-4.1,7.32-9.62S1518.34,892.44,1514.59,892.23Z"/><path class="cls-37" d="M1565.84,895.72c-3.75-.2-7,4.11-7.33,9.63s2.49,10.16,6.24,10.36,7-4.1,7.32-9.62S1569.58,895.93,1565.84,895.72Z"/><path class="cls-38" d="M1489.12,902a21.13,21.13,0,1,0,20,22.25A21.13,21.13,0,0,0,1489.12,902Z"/><path class="cls-34" d="M1551.6,927l-22.93,4.62c-1.59.32-1.16,1.81.59,2l17.29,2.32a1.91,1.91,0,0,0,1.69-.46l5.63-6.94C1554.54,927.73,1553.05,926.69,1551.6,927Z"/><path class="cls-36" d="M1527.89,956.79a24.35,24.35,0,0,0-8.57.56,14.25,14.25,0,0,0-7.37,4.31,33,33,0,0,1,7.85-1.2,55.22,55.22,0,0,1,7.7.31c2.57.25,5.17.63,7.8,1s5.31.81,8.12,1.11a25.83,25.83,0,0,0-7.31-4.14A32.25,32.25,0,0,0,1527.89,956.79Z"/><path class="cls-28" d="M1781.72,1135.59a7.56,7.56,0,0,0-10.78-3.92,7.89,7.89,0,0,0-3.39,9.27l16.06,52-25.71-48.69a6.35,6.35,0,0,0-9.21-2.29l-28.83,19.67a5,5,0,0,0-1.76,6l20.06,47c-8.94,23-11.13,42.09-11,55.6a45,45,0,0,0,15.24,33.37c24.75,11.52,33.72-5.28,51-21.4,0-4.93-.07-8.24-.07-8.24l11.44-67.53a26.1,26.1,0,0,0-1.31-13.5Z"/><rect class="cls-34" x="1754.48" y="1142.75" width="4" height="61.5" transform="translate(-337.95 898.37) rotate(-26.26)"/><rect class="cls-34" x="1740.39" y="1152.16" width="4" height="60.53" transform="translate(-336.86 849.57) rotate(-25.07)"/><path class="cls-39" d="M2787.61,2657.29h1.44c3.1,5.46,11.66,10.65,24.77,15.48,24.71,9.11,65.61,16.86,117.08,22.37,52.69,5.64,116.45,9,185.15,9,15.26,0,30.27-.13,45-.47.76,0,1.54,0,2.3,0l11.9-.31c1.15-.06,2.3-.08,3.42-.11,10.88-.31,21.61-.73,32.07-1.23,3.16-.15,6.32-.31,9.45-.44l6.24-.36q23.29-1.34,44.81-3.14c7.18-.6,14.17-1.22,21-1.93s13.5-1.41,20-2.16c2.16-.24,4.28-.5,6.42-.76l6.29-.78c65.74-8.54,110-21,118.12-35.06h1.41V2559H2787.61Z"/><path class="cls-9" d="M3210.73,2701.92c42.31-2,81-5.3,114.18-9.59V2562.15H3210.73Z"/><path class="cls-9" d="M3161,2703.61c9.54-.2,18.93-.48,28.22-.82V2585.55H3161Z"/><path class="cls-10" d="M3357.13,2529c-31.66-4.63-70.51-8.34-114.17-10.82-7-.38-14.2-.76-21.49-1.1q-13.84-.62-28.21-1.1c-24.76-.79-50.61-1.22-77.21-1.22-28.34,0-55.84.48-82.05,1.4-92.13,3.2-168.63,11.64-210.86,22.84-22.71,6-35.53,12.87-35.53,20.08,0,21.92,117.78,40.11,272.58,43.69q27.24.62,55.86.64,22.9,0,45-.41,14.31-.27,28.21-.69,10.89-.35,21.48-.77c42.28-1.71,80.95-4.55,114.18-8.26,73-8.14,119.54-20.44,119.54-34.2a7.49,7.49,0,0,0-1.68-4.53C3435.37,2544.68,3404.2,2535.81,3357.13,2529Z"/><path class="cls-12" d="M3116,2528.14c-137.42,0-248.8,15-248.8,33.58s111.38,33.57,248.8,33.57,248.78-15,248.78-33.57S3253.44,2528.14,3116,2528.14Z"/><path class="cls-9" d="M3116,2534.85c-123.67,0-223.94,13.53-223.94,30.22s100.27,30.22,223.94,30.22S3340,2581.77,3340,2565.07,3239.69,2534.85,3116,2534.85Z"/><path class="cls-40" d="M2819.87,2536.4h1.41a16.72,16.72,0,0,0,1.85,2.56c.11.13.24.26.34.37,6.58,7,22.16,13.52,44.82,19.28h0c.5.16,1.05.29,1.59.42,6.82,1.72,14.28,3.34,22.34,4.93h0c34.84,6.79,80.46,12.17,132.79,15.51,13.52.83,27.49,1.56,41.82,2.14,26,1,53.29,1.59,81.37,1.59q22.9,0,45-.5c.63,0,1.23,0,1.86,0,5.24-.11,10.46-.26,15.6-.42h.16c10.88-.31,21.61-.76,32.08-1.23,1.75-.08,3.47-.15,5.19-.26l4.31-.23,3.1-.16,3.08-.18c2.59-.13,5.14-.26,7.7-.42s5.09-.31,7.62-.5l7.05-.47c3-.2,5.92-.41,8.85-.65,2.14-.15,4.25-.31,6.37-.49.26,0,.52,0,.73-.06,2.16-.15,4.33-.34,6.49-.52l7.47-.62c4.59-.42,9.11-.87,13.54-1.31a2.43,2.43,0,0,1,.45,0l3.13-.31,2.9-.31q10.8-1.14,21-2.4l1-.11,0,0c.44-.06.91-.11,1.36-.19.94-.1,1.88-.23,2.82-.36,27.19-3.5,50.71-7.7,69.5-12.4q8.76-2.19,16.13-4.51c17.51-5.56,28.81-11.67,32.52-18.12h1.41v-98.26H2819.87Z"/><path class="cls-9" d="M3243,2581c42.3-2,81-5.28,114.17-9.57V2441.26H3243Z"/><path class="cls-9" d="M3193.27,2582.73q14.31-.32,28.19-.83V2464.65h-28.19Z"/><path class="cls-10" d="M3397.45,2409.27c-31.14-4.9-70.08-8.84-114.19-11.53q-10.56-.67-21.48-1.2c-9.21-.45-18.63-.86-28.21-1.2-27.19-1-55.8-1.52-85.32-1.52-65.92,0-127.31,2.61-178.75,7.13-44.34,3.89-81.3,9.18-107.37,15.42-26.91,6.45-42.26,13.86-42.26,21.77,0,16.47,66.55,30.85,165.34,38.47,48,3.73,103.69,5.85,163,5.85q22.9,0,45-.42c9.53-.18,18.95-.39,28.19-.68,7.28-.24,14.43-.5,21.51-.76,42.28-1.72,81-4.56,114.16-8.27,73-8.12,119.56-20.41,119.56-34.19a6.21,6.21,0,0,0-.5-2.45C3472.09,2425.61,3443.15,2416.45,3397.45,2409.27Z"/><path class="cls-12" d="M3148.26,2407.24c-137.4,0-248.8,15-248.8,33.57s111.4,33.59,248.8,33.59,248.81-15,248.81-33.59S3285.69,2407.24,3148.26,2407.24Z"/><path class="cls-9" d="M3148.26,2414c-123.67,0-223.91,13.53-223.91,30.22s100.24,30.22,223.91,30.22,223.92-13.52,223.92-30.22S3272,2414,3148.26,2414Z"/><path class="cls-40" d="M2860.14,2415.51h1.41a5,5,0,0,0,.58.86c4.8,7.08,18.74,13.7,39.88,19.6,2.61.73,5.32,1.46,8.14,2.17q7.08,1.76,15.06,3.44c15.81,3.34,34.19,6.35,54.6,9,56.74,7.34,129.45,11.75,208.74,11.75q22.9,0,45-.47l9.4-.24,8.22-.23c10.88-.32,21.61-.73,32.07-1.23q13.54-.63,26.57-1.46c2.33-.13,4.67-.29,7-.44l6.92-.47c4.33-.32,8.61-.63,12.81-1a6.47,6.47,0,0,1,.76-.05c6.76-.55,13.36-1.12,19.84-1.75l.33,0c2.46-.21,4.91-.44,7.31-.7,5.74-.55,11.38-1.15,16.86-1.78,34-3.88,63-8.77,85.37-14.35,3.21-.81,6.27-1.62,9.19-2.45,21.43-6.09,35.21-12.92,39.38-20.18H3517v-98.26H2860.14Z"/><path class="cls-9" d="M3283.26,2460.14c42.29-2,81-5.29,114.18-9.59V2320.36H3283.26Z"/><path class="cls-9" d="M3233.58,2461.83c9.54-.19,18.92-.49,28.2-.82V2343.76h-28.2Z"/><path class="cls-10" d="M3188.55,2272.92c-181.35,0-328.42,19.84-328.42,44.33s147.07,44.32,328.42,44.32S3517,2341.73,3517,2317.25,3370,2272.92,3188.55,2272.92Z"/><path class="cls-12" d="M3188.55,2286.35c-137.38,0-248.76,15-248.76,33.58s111.38,33.59,248.76,33.59,248.8-15,248.8-33.59S3326,2286.35,3188.55,2286.35Z"/><path class="cls-9" d="M3188.55,2293.07c-123.66,0-223.91,13.53-223.91,30.22s100.25,30.23,223.91,30.23,223.94-13.53,223.94-30.23S3312.24,2293.07,3188.55,2293.07Z"/><path class="cls-39" d="M2767.46,2297h1.44a17.34,17.34,0,0,0,3.52,4.2c11.51,10.39,42.86,19.68,87.7,27h0c4.7.76,9.5,1.49,14.49,2.19h.08c24.24,3.5,51.83,6.4,81.92,8.62q11.72.86,23.91,1.56c5.43.34,10.93.65,16.52.89h.21c5.35.29,10.75.52,16.18.76h0c26.36,1.07,53.92,1.61,82.39,1.61,15.27,0,30.3-.13,45-.47.76,0,1.52,0,2.27-.05l11.9-.31,4.73-.16c3.1-.08,6.24-.21,9.32-.31,7.23-.24,14.43-.52,21.48-.86l4.75-.24c1.59-.08,3.15-.13,4.72-.21,2-.13,4-.23,5.92-.33q12.76-.75,25-1.6c4.34-.31,8.62-.62,12.84-1,2.43-.21,4.83-.39,7.23-.6l6.53-.55c2.76-.26,5.51-.52,8.25-.76,2.08-.23,4.17-.42,6.21-.6s3.78-.39,5.63-.57,3.71-.42,5.56-.6q11.09-1.22,21.51-2.56c25.71-3.34,48.13-7.26,66.37-11.64l.1,0c4.21-1,8.15-2.06,11.88-3.1,5.4-1.54,10.34-3.08,14.75-4.73a89.48,89.48,0,0,0,15.39-7c4.7-2.74,7.94-5.61,9.64-8.53h1.43V2198.7H2767.46Z"/><path class="cls-9" d="M3190.58,2341.59c42.28-2,81-5.29,114.18-9.58V2201.83H3190.58Z"/><path class="cls-9" d="M3140.87,2343.28q14.31-.3,28.23-.81V2225.22h-28.23Z"/><path class="cls-10" d="M3369.91,2174.28h0c-28.95-5.9-68.12-10.84-114.13-14.31h0q-10.53-.78-21.48-1.48-13.78-.87-28.19-1.54h0c-34.45-1.67-71.52-2.56-110.17-2.56-55.2,0-107.21,1.82-152.89,5.09q-11.89.86-23.23,1.8c-33.74,2.92-63.26,6.63-87.14,10.93-40.93,7.39-65.15,16.58-65.15,26.49,0,16.63,67.78,31.11,168.08,38.68q11.72.9,24,1.65c41.53,2.56,87.72,4,136.37,4,15.27,0,30.28-.16,45-.39h0q14.3-.27,28.22-.71c7.25-.23,14.4-.46,21.48-.75,42.28-1.72,81-4.57,114.15-8.28h0c54.76-6.08,94.58-14.51,111.1-24.19h0c5.51-3.21,8.43-6.58,8.43-10C3424.33,2189.67,3404.29,2181.27,3369.91,2174.28Z"/><path class="cls-12" d="M3095.88,2167.8c-137.39,0-248.77,15-248.77,33.58S2958.49,2235,3095.88,2235s248.79-15,248.79-33.59S3233.27,2167.8,3095.88,2167.8Z"/><path class="cls-9" d="M3095.88,2174.51c-123.67,0-223.91,13.54-223.91,30.23S2972.21,2235,3095.88,2235s223.93-13.53,223.93-30.23S3219.56,2174.51,3095.88,2174.51Z"/><path class="cls-40" d="M2832.61,2181H2834c2.66,4.56,9.13,9,18.94,13.15,3.69,1.57,7.89,3.11,12.51,4.59,2.55.81,5.24,1.65,8.09,2.43,15.32,4.33,34.53,8.3,56.89,11.75q11.64,1.8,24.33,3.41c51.49,6.56,115.8,10.68,186.09,11.33h0c6.63.08,13.37.11,20.15.11,2.69,0,5.38,0,8.07,0q10.8,0,21.48-.18c5.19-.08,10.33-.13,15.45-.26,9.55-.21,18.92-.5,28.21-.81q10.89-.39,21.48-.89c1.25,0,2.48-.13,3.73-.18a.77.77,0,0,1,.26,0c1.88-.08,3.76-.18,5.64-.29,2-.07,4-.2,6-.31l5.22-.31a.43.43,0,0,0,.16,0h0c3.34-.18,6.65-.42,9.94-.63l3.76-.23q7.2-.48,14.25-1c6.42-.5,12.74-1,18.92-1.57q6.9-.61,13.55-1.28c4.54-.47,9-.94,13.44-1.43s8.69-1,12.92-1.51l3.34-.42,2.95-.39h0c16.81-2.17,32.21-4.6,46-7.26h0c2.9-.52,5.69-1.1,8.43-1.7,35.26-7.38,58.1-16.33,63.71-26h1.43v-98.27H2832.61Z"/><path class="cls-9" d="M3255.74,2225.55c42.29-2,81-5.28,114.16-9.58V2085.79H3255.74Z"/><path class="cls-9" d="M3206,2227.26c9.54-.21,18.92-.49,28.2-.82V2109.19H3206Z"/><path class="cls-10" d="M3161,2038.34c-181.38,0-328.42,19.85-328.42,44.33S2979.65,2127,3161,2127s328.43-19.84,328.43-44.32S3342.41,2038.34,3161,2038.34Z"/><path class="cls-12" d="M3161,2051.78c-137.39,0-248.79,15-248.79,33.57s111.4,33.58,248.79,33.58,248.79-15,248.79-33.58S3298.43,2051.78,3161,2051.78Z"/><path class="cls-9" d="M3161,2058.5c-123.66,0-223.93,13.52-223.93,30.21s100.27,30.22,223.93,30.22S3385,2105.41,3385,2088.71,3284.7,2058.5,3161,2058.5Z"/><path class="cls-39" d="M2767.46,2063h1.44c5.56,9.73,28.4,18.69,63.71,26.1,1.46.28,2.92.6,4.41.88,0,0,0,0,0,0h.06c19.91,4,43.5,7.52,70,10.44,7.78.86,15.84,1.67,24.12,2.43,9.39.86,19.13,1.67,29.1,2.35h.15c6.4.47,12.87.88,19.47,1.28h.11c36,2.11,75,3.31,115.8,3.31q22.9,0,45-.5c7.15-.15,14.22-.36,21.22-.57l7-.24h0c7.26-.26,14.46-.55,21.54-.88l4.75-.24,4.72-.21c2-.13,4-.23,5.92-.33l8.43-.5c2.41-.16,4.81-.29,7.18-.44s5-.34,7.52-.53l1.9-.13c4.34-.31,8.62-.62,12.84-1a5.67,5.67,0,0,1,.73-.06c3.76-.28,7.47-.62,11.15-.91h0l2.4-.23c3.75-.34,7.43-.69,11.09-1l2.82-.27c6.81-.65,13.46-1.41,19.94-2.16l12.71-1.57c25.16-3.26,47.13-7.07,65.17-11.33h0c4.18-1,8.15-2,11.85-3.08h0c1.17-.31,2.3-.62,3.39-.94A174.63,174.63,0,0,0,3402,2077h.06c10.91-4.38,18.06-9.08,20.88-14h1.43v-98.27H2767.46Z"/><path class="cls-9" d="M3190.58,2107.62c42.28-2,81-5.29,114.15-9.58V1967.85H3190.58Z"/><path class="cls-9" d="M3140.87,2109.32q14.31-.32,28.2-.82V1991.25h-28.2Z"/><path class="cls-10" d="M3314.43,1931.63q-15.63-1.87-32.94-3.47c-52.83-4.91-116.74-7.75-185.62-7.75-181.36,0-328.41,19.83-328.41,44.31,0,19.4,92.13,35.86,220.49,41.87,33.8,1.59,70.1,2.45,107.92,2.45,15.27,0,30.28-.16,45-.39h0c9.53-.18,18.9-.42,28.16-.71h0q10.89-.35,21.51-.75c18.21-.73,35.75-1.7,52.48-2.85,22.08-1.48,42.75-3.31,61.65-5.43,73.05-8.09,119.61-20.43,119.61-34.19C3424.33,1951.57,3381.87,1939.75,3314.43,1931.63Z"/><path class="cls-12" d="M3095.88,1933.83c-137.39,0-248.8,15.05-248.8,33.59s111.41,33.58,248.8,33.58,248.79-15,248.79-33.58S3233.27,1933.83,3095.88,1933.83Z"/><path class="cls-9" d="M3095.88,1940.55c-123.67,0-223.91,13.53-223.91,30.22S2972.21,2001,3095.88,2001s223.91-13.53,223.91-30.23S3219.56,1940.55,3095.88,1940.55Z"/><g class="cls-22"><path class="cls-8" d="M3095.87,1920.41c-181.36,0-328.41,19.83-328.41,44.31V2063h1.44c5.56,9.73,28.4,18.69,63.71,26.1v83.12c-40.93,7.39-65.15,16.58-65.15,26.49V2297h1.44a17.34,17.34,0,0,0,3.52,4.2c11.51,10.39,42.86,19.68,87.7,27h0v87.38h1.41a5,5,0,0,0,.58.86c-26.91,6.45-42.26,13.86-42.26,21.77v86.94l1.41-.29,2.14,14.09,0,.45.08.47a25.59,25.59,0,0,0-5.51,3.65l-20.2,15.58-7.46,5.77-2.77,2.11v90.38h1.44c3.1,5.46,11.66,10.65,24.77,15.48,24.71,9.11,65.61,16.86,117.08,22.37l129.68-36.88-8.09-28.5-15.08-27.69-4.78-8.72-.13-.23-7.44-13.65L3013.92,2559,3003,2539l-3.78-6.95-2.09-3.83a10.68,10.68,0,0,0-11-5.74l-1.28-4.08-7.52-24.19,11.12-2.17-3.21-15.42-2.22-10.68-.29-1.4-2.89-14-2.59-12.42-2.68-13-1.7-8.12L2969.5,2401l-10.81-52-2.06-10-1.51-7.36-3-14.33-1.49-7.13-4.72-22.76-10.39-50-2.19-10.59-.26-1.31-2.64-12.6-2.92-14.18-2.79-13.46-1.67-8-3.32-15.94-10.41-50.14-2.22-10.7-2.27-10.94,7.67-2.55,12.69-4.26,64.91-21.71.05,0,26.18-8.77,5.32-1.8,6.4-2.14a624.3,624.3,0,0,0,110.29-9.81c.84-.13,1.67-.29,2.51-.47,9.52-1.78,18.94-3.81,28.18-6.16q11-2.74,21.54-6a301.86,301.86,0,0,0,52.48-21.46c3.5-1.85,6.94-3.81,10.26-5.82,2.5-1.51,4.93-3,7.33-4.62l2.35-1.59c.86-.6,1.7-1.2,2.51-1.8a149.84,149.84,0,0,0,24.92-22.65c.91-1,1.8-2.09,2.69-3.14,1.88-2.24,3.65-4.54,5.38-6.83,2.14-2.87,4.17-5.8,6-8.77a173,173,0,0,0,9.87-17.49q-15.63-1.87-32.94-3.47C3228.66,1923.25,3164.75,1920.41,3095.87,1920.41Z"/></g><polygon class="cls-28" points="2265.51 2469.33 2409.61 2569.01 2503.59 2390.08 2355.58 2301.78 2265.51 2469.33"/><g class="cls-41"><path class="cls-34" d="M2367.46,2211.57l-53.84,147.06s226.2,116.76,237.85,129.35l-6.59-153.89Z"/><path class="cls-34" d="M2426.19,2479c-57.71-.65-92.41-63.35-136.06-66s-59.15,17.81-59.15,17.81v100.74l217.7,120.42,25.46-100.26S2483.91,2479.6,2426.19,2479Z"/></g><path class="cls-31" d="M2427.75,2500.08c-94.62,17.35-105.6-36.39-120.52-72.53-3.16-7.67-12.08-11.26-20.35-10.62l-224,2.83a67.37,67.37,0,0,0-57.68,43l-1.18,3.07,418.51,160.89,16.71-114.46C2440.45,2505.39,2434.62,2498.82,2427.75,2500.08Z"/><rect class="cls-7" x="2193.13" y="2335.91" width="29.61" height="448.37" transform="translate(-973.94 3702.35) rotate(-68.97)"/><rect class="cls-7" x="2244.75" y="2484.57" width="4" height="91.33" transform="translate(-187.5 179.83) rotate(-4.4)"/><rect class="cls-7" x="2190.79" y="2484.55" width="4" height="68.11" transform="translate(-186.8 175.69) rotate(-4.4)"/><polygon class="cls-28" points="2744.89 2389.21 2773.47 2577.28 2948.56 2570.45 2887.46 2374.01 2744.89 2389.21"/><path class="cls-31" d="M2921.67,2504.44c-65.24,70.7-106.29,34.31-139.92,14.37-7.14-4.23-16.43-1.74-22.65,3.73l-177.44,136.79a67.39,67.39,0,0,0-20.3,69l.9,3.17,431.27-122.66-55.37-101.57C2935,2501.07,2926.4,2499.31,2921.67,2504.44Z"/><rect class="cls-7" x="2557.76" y="2669.62" width="448.37" height="29.61" transform="translate(-628.25 863.45) rotate(-15.88)"/><rect class="cls-7" x="2793.05" y="2591.58" width="4" height="91.33" transform="translate(-1045.37 2501.09) rotate(-41.31)"/><rect class="cls-7" x="2742.92" y="2626.29" width="4" height="68.11" transform="translate(-1073.09 2473.77) rotate(-41.31)"/><polygon class="cls-42" points="2758.3 1893.76 2604.7 2027.61 2754.11 2505.49 2929.46 2471.12 2845.9 2068.6 3151.11 1966.38 3050.13 1887.81 2758.3 1893.76"/><g class="cls-43"><path class="cls-44" d="M3054.87,1819.71l-301.81-48-225,159.38-11.75,237.67s46.06,137.57,101,95.51,33.94-152.5,90.56-215.93,321.56-7.26,321.56-7.26l196.89-70.85-105.3-122Z"/><polygon class="cls-45" points="2780.36 2054.52 2812.61 2087.1 2782.12 2108.34 2929.46 2471.12 2957.38 2031.26 2839.82 2058.51 2780.36 2054.52"/></g><path class="cls-42" d="M2645,1800.6c-70.8,30.25-314,546.58-314,546.58l146.74,97.13s97.67-163.87,126.72-200c58.07-72.16,16-143.49,48.17-209.79s128.72-45.22,197.11-21.72,256.41,23.9,352-39.84S3275,1771.73,3275,1771.73,2715.76,1770.35,2645,1800.6Z"/><g class="cls-46"><path class="cls-44" d="M2845.08,1756.15s234.16,39.35,281,120.51-279.56,71.69-396.1,58.83-150,.22-165.8,141.47-141.06,325-194.57,330.79S2418.42,2523,2418.42,2523l233.76-61.53,336.05-339.76,237.28-76.22,149.76-206.8-52.76-127Z"/><path class="cls-44" d="M2732.85,1722.37c-14.58,3.47-30.5,9.8-36.18,23.67-7.41,18.11,6.56,37.46,20.3,51.38,16.11,16.32,33.59,31.89,54.46,41.39s45.74,12.33,66.69,3c16.81-7.48,29.44-21.75,44-33a142.75,142.75,0,0,1,49.22-24.72l-72.6-57.51A239.75,239.75,0,0,0,2732.85,1722.37Z"/><path class="cls-45" d="M2942.8,2003.65c-127.92-32.63-257.68-23.77-257.68-23.77l-38.9-32.46,9.73,56.23-51.25,9.51,33.65,18.86s-3.31,134.54-47.11,181-174.34,226.56-174.34,226.56l118.23,112.94,299.35-347,411.9-245C3240.49,1958.18,3070.72,2036.27,2942.8,2003.65Z"/></g><path class="cls-16" d="M3261.56,1317.8c-69.88-47.06-174.93-51.65-174.93-51.65-142.83,45.42-208.36,67.4-211,245.72-4.68,83.22-149.47,216.42-149.47,216.42s43.5,97.68,103.31,76.77,114.23-65.83,114.23-65.83l-23.7,37.4,383,122.12s30.14-296.73,29.78-386.55S3331.45,1364.87,3261.56,1317.8Z"/><g class="cls-47"><path class="cls-48" d="M3312.53,1357.69s63.61,243.54-93.57,317.19,24.64,42.59-4.69,58.52-224.53-51.18-270.61,5.83c91.12-5.83,103,12.52,103,12.52s-112.62-1.11-137.32,25.21-7.65,48.62-7.65,48.62L3255.33,1964l104.39-11.72,42.84-274.94S3365.05,1352,3312.53,1357.69Z"/><path class="cls-48" d="M3168.48,1254.14c-66.39-17.88-153.61-3.56-160.31,35.83a96.78,96.78,0,0,0,.43,33,108.9,108.9,0,0,0,5.37,19.59c6.6,17.44,17.6,32.46,31.67,40,9.82,5.25,21.15,6.81,33.55,3,9.16-2.76,18.91-8.49,29.06-17.85,1.23-1.12,2.43-2.22,3.66-3.3q7.37-6.63,14.65-12.48a367.35,367.35,0,0,1,33.1-23.84c6.8-4.34,13.38-8.21,19.57-11.66a329.36,329.36,0,0,1,32.61-15.81,194.23,194.23,0,0,1,20.82-7.59C3219.46,1274.24,3195.72,1261.48,3168.48,1254.14Z"/><g class="cls-22"><path class="cls-7" d="M3008.17,1290a96.78,96.78,0,0,0,.43,33l29.14-20.5L3014,1342.53c6.6,17.44,17.6,32.46,31.67,40l29.13-102.74,4.42,105.73c9.16-2.76,18.91-8.49,29.06-17.85,1.23-1.12,2.43-2.22,3.66-3.3l-3.66-87.6,18.31,75.12a367.35,367.35,0,0,1,33.1-23.84l-25.88-71,45.45,59.29c12.63-7,32.85-16.53,41.64-20.19l-52.39-42C3102.09,1236.26,3014.87,1250.58,3008.17,1290Z"/></g><path class="cls-48" d="M2948,1469.22c-20.43,117.71-16.86,178.21-43,174s3.48,20.76-9,42.3-116.89,99.28-175.5,57.79,5.64,105.69,5.64,105.69l113.7,18.76,83.46-113.25s29.94-2.8,24.73-55.76C2948,1698.79,2963.26,1580.87,2948,1469.22Z"/></g><path class="cls-28" d="M3014.85,1678.79c-1.22-10.41-57.15-25.72-57.77-25.88l-14.28-7.09L2882,1615.65a31.91,31.91,0,0,0-16.27-3.23l-74.94,5.15a9.26,9.26,0,0,0-8.31,6.83,9.07,9.07,0,0,0-.28,3.35,9.27,9.27,0,0,0,9.29,8.32l67.16-.46-66.14,12.94a7.8,7.8,0,0,0-5.94,10l12.88,40.72a6.05,6.05,0,0,0,6.44,4.2l62.22-6.91c49.23,38.43,88.62,37.13,88.62,37.13l28.87,11.9,11.68,4.82a17.41,17.41,0,0,0,23.93-18.11Z"/><path class="cls-34" d="M3014.85,1678.79c-1.22-10.41-57.15-25.72-57.77-25.88l-14.28-7.09,6.6,87.58,47.85,17a17.41,17.41,0,0,0,23.93-18.11Z"/><rect class="cls-34" x="2788.63" y="1658.55" width="75.28" height="4" transform="translate(-235.15 488.83) rotate(-9.49)"/><rect class="cls-34" x="2794.7" y="1678.22" width="74.09" height="4" transform="translate(-212.76 426.07) rotate(-8.29)"/><path class="cls-28" d="M2713.65,1604.14c-22,7.66,14,34.52,9.55,43.09-2.56,5-33,16.84-59,13.74-19-2.27-24.46-17.86-45-11.3-11.39,3.64,31.78,54.21,81.13,73.92s93.44,3.93,94.41,2.16C2817.43,1684.15,2729.69,1598.55,2713.65,1604.14Z"/><path class="cls-34" d="M2712.69,1703.11l0,.08s0,0,0,0a.42.42,0,0,1,.17-.3.33.33,0,0,1,.29,0,.46.46,0,0,1,.17.12s0,0,0,0a2.12,2.12,0,0,1-.13-.22l-.83-1.55c.06.42.11.85.18,1.27Z"/><path class="cls-34" d="M2683.1,1698.27l3.29-1.84q-4.41-6.78-9-13.41c.55,2.14,1.21,4.23,1.94,6.28A91.05,91.05,0,0,0,2683.1,1698.27Z"/><path class="cls-34" d="M2728.49,1683.49a41.23,41.23,0,0,0-3.37-3.51,16.27,16.27,0,0,0-4.18-2.93,5.27,5.27,0,0,0-3-.41,5.19,5.19,0,0,0-2.63,1.58,11.88,11.88,0,0,0-2.4,4.75,37.06,37.06,0,0,0-1.07,9.82,64.41,64.41,0,0,0,.62,8.45l.83,1.55a2.12,2.12,0,0,0,.13.22s0,0,0,0a.46.46,0,0,0-.17-.12.33.33,0,0,0-.29,0,.42.42,0,0,0-.17.3s0,0,0,0v0l0-.08-.09-.6c-.07-.42-.12-.85-.18-1.27l-1.43-2.67c-3.06-5.6-6.27-11.13-9.82-16.49-1.78-2.68-3.67-5.3-5.72-7.84-1-1.26-2.11-2.5-3.27-3.69a25.57,25.57,0,0,0-3.9-3.36,12.77,12.77,0,0,0-2.52-1.33,6.7,6.7,0,0,0-3.29-.44,8.43,8.43,0,0,0-.9.19l-.75.29a7.35,7.35,0,0,0-1.44.81,7,7,0,0,0-2.07,2.5,12.07,12.07,0,0,0-1.15,5.53,28.15,28.15,0,0,0,.51,5.09c.2,1.08.45,2.14.72,3.19q4.59,6.64,9,13.41l-3.29,1.84a91.05,91.05,0,0,1-3.77-9c-.73-2-1.39-4.14-1.94-6.28q-1.87-2.71-3.8-5.43c-4.45-6.15-9-12.26-13.94-18a67.81,67.81,0,0,0-8.13-8.22,14.82,14.82,0,0,0-2.53-1.68,5.83,5.83,0,0,0-1.62-.56,2.77,2.77,0,0,0-2.06.42,2.67,2.67,0,0,0-.71.77l-.39.7a9,9,0,0,0-.57,1.46,12.41,12.41,0,0,0-.47,3,31.9,31.9,0,0,0,2.16,11.32,71.27,71.27,0,0,0,4.68,10.38,78.56,78.56,0,0,1-3.86-10.63,32.35,32.35,0,0,1-1.43-11,10,10,0,0,1,.54-2.58,7.48,7.48,0,0,1,.52-1.15l.33-.52a.73.73,0,0,1,.26-.25.87.87,0,0,1,.65,0,4.42,4.42,0,0,1,1,.44,12.53,12.53,0,0,1,2.12,1.54,66.18,66.18,0,0,1,7.47,8.24c4.65,5.89,9,12.06,13.21,18.31s8.37,12.56,12.35,18.94l3.29-1.84a77.77,77.77,0,0,1-5.95-17.48,23.5,23.5,0,0,1-.42-4.37,8.19,8.19,0,0,1,.73-3.71,3.3,3.3,0,0,1,.92-1.14,3.8,3.8,0,0,1,.63-.35l.36-.15.26,0a5,5,0,0,1,3.05,1.1,32.88,32.88,0,0,1,6.37,6.24c2,2.39,3.8,4.92,5.55,7.51,3.54,5.18,6.82,10.57,10,16.06l2.31,4.13.17.3a3.63,3.63,0,0,0,.38.52,3,3,0,0,0,1.13.79,3,3,0,0,0,2.59-.2,3,3,0,0,0,1.48-2.18,2.84,2.84,0,0,0,0-.65l0-.31,0-.16-.11-.57a62.12,62.12,0,0,1-1.05-9.22,35.52,35.52,0,0,1,.69-9.08,9.43,9.43,0,0,1,1.65-3.77,2.71,2.71,0,0,1,1.33-.92,3,3,0,0,1,1.61.21,14.46,14.46,0,0,1,3.67,2.38,46.09,46.09,0,0,1,3.38,3.19c2.18,2.26,4.21,4.68,6.18,7.15,3.94,4.95,7.65,10.1,11.21,15.36a188.55,188.55,0,0,0-10.14-16.17C2732.52,1688.48,2730.6,1685.93,2728.49,1683.49Z"/><path class="cls-6" d="M2894.12,1746.3l-328.86-205.63a4.57,4.57,0,0,0-6.28,1.44l-13.58,21.73a4.56,4.56,0,0,0,1.45,6.27l328.86,205.64a4.56,4.56,0,0,0,6.27-1.45l13.58-21.72A4.57,4.57,0,0,0,2894.12,1746.3Z"/><path class="cls-49" d="M2689.94,1618.63l-124.68-78a4.57,4.57,0,0,0-6.28,1.44l-13.58,21.73a4.56,4.56,0,0,0,1.45,6.27l124.68,78a4.57,4.57,0,0,0,6.28-1.45l13.58-21.72A4.57,4.57,0,0,0,2689.94,1618.63Z"/><path class="cls-16" d="M3128.83,1643.65l-157,3.9-12.6,91.09s192.45,68.06,251.5,39.57,97.14-208.94,100.06-209.86L3162.06,1463Z"/><path class="cls-50" d="M2962.12,1739.05l.33-2.42-2.28-.78Z"/><polygon class="cls-50" points="3128.78 1641.6 3127.14 1641.63 3126.82 1643.28 3128.78 1641.6"/><polygon class="cls-50" points="2971.85 1650.36 2974.25 1650.29 2974.57 1647.93 2971.85 1650.36"/><path class="cls-50" d="M3309.91,1570.08c-.22.61-.42,1.22-.62,1.83l-1.15,3.7L3306,1583l-4.37,14.85q-4.35,14.85-9,29.59c-6.28,19.64-13.13,39.1-20.93,58.15-3.89,9.53-8,18.95-12.55,28.17a276.41,276.41,0,0,1-14.9,26.87,135.07,135.07,0,0,1-18.75,23.93,65,65,0,0,1-11.68,9.27,49.13,49.13,0,0,1-13.64,5.59,94.33,94.33,0,0,1-14.85,2.48c-5,.47-10.12.66-15.21.66a282.8,282.8,0,0,1-30.59-2,589,589,0,0,1-60.64-10.75c-20.06-4.51-40-9.76-59.76-15.47q-14.84-4.29-29.56-8.94c-9-2.84-18.09-5.77-27-8.84l-.33,2.42-1.95-3.2,2.28.78,11.8-86.34-2.4.07,2.72-2.43-.32,2.36,76.12-2.17,78.51-2.43,1.68,0,.29-1.62,7.92-45.24,7.85-45.24,7.78-45.26c2.62-15.08,5.12-30.18,7.66-45.28-3,15-6,30-8.95,45l-8.83,45.07-8.77,45.07-8.37,43.45,1.64,0-2,1.67.32-1.64-76.9,1.44-78.53,1.66-2.38,0-.34,2.38-12.75,91.08-.33,2.4,2.28.8c19.59,6.83,39.32,13,59.22,18.66s39.92,10.92,60.13,15.42a570,570,0,0,0,61.31,10.46,284.17,284.17,0,0,0,31.18,1.78c10.44-.09,21-.85,31.32-3.61a54.29,54.29,0,0,0,14.82-6.3,70.37,70.37,0,0,0,12.4-10.07,139.31,139.31,0,0,0,19.07-24.93,277.74,277.74,0,0,0,14.66-27.5c4.4-9.39,8.41-18.94,12.16-28.58,7.46-19.31,13.83-39,19.68-58.8q4.38-14.87,8.36-29.83l3.91-15,2-7.48,1-3.73c.18-.62.36-1.24.56-1.85.1-.31.2-.61.32-.91a2.14,2.14,0,0,1,.45-.84,2.21,2.21,0,0,0-.48.83C3310.13,1569.47,3310,1569.78,3309.91,1570.08Z"/><polygon class="cls-48" points="3162.06 1463 3128.83 1643.64 2971.78 1647.55 3108.24 1668.64 3121.61 1713.75 3134.96 1674.88 3180.2 1698.79 3158.36 1658.21 3162.06 1463"/><path class="cls-51" d="M3135.34,1032.25c-7.6-1.2-15.74-.46-22.33,3.5l-1.4,2.55c1.61-15.72-7.41-31.62-21-39.69s-31-8.64-45.72-3-26.94,17-35.08,30.58c-2.49,4.13-4.72,8.59-8.43,11.68-7.45,6.2-18.47,5.16-27.42,8.9a27.27,27.27,0,0,0-15.9,19.21c-1.46,6.94-.16,14.36-2.5,21.06-3.37,9.64-13.17,15.16-21.82,20.58-2.27,1.42-4.63,3-5.65,5.5-1.35,3.23.09,7.1,2.6,9.55s5.9,3.74,9.22,4.85a131.33,131.33,0,0,0,24.29,5.55c5.14.66,10.35,1,15.36,2.36,5.52,1.47,10.67,4.07,15.88,6.42,8.45,3.81,17.17,7,25.88,10.16l25.34,9.25c8.89,3.24,17.81,6.49,27,8.64,15.27,3.55,31.07,4,46.74,4,9.32,0,18.87-.14,27.58-3.45,18.79-7.14,29.49-27.28,33.82-46.92,4.14-18.7,3.88-38.85-3.86-56.38S3154.27,1035.21,3135.34,1032.25Z"/><g class="cls-52"><path class="cls-13" d="M3008.79,1092.72c-5.73,2.73-9.72,8.06-14.8,11.86a32.57,32.57,0,0,1-33.17,3c-4.68-2.32-8.73-5.75-13.36-8.16a35.16,35.16,0,0,0-24.75-2.82c-11.19,2.9-21.22,13.29-19.93,24.78.9,8,6.85,14.56,13.56,19,15.77,10.41,35.93,11.57,54.72,9.55,9.12-1,18.89-3,25-9.88l28.53-42.3C3023.14,1091.6,3014.52,1090,3008.79,1092.72Z"/><path class="cls-13" d="M3111.63,1091.47a64.73,64.73,0,0,1-31,23.49L3059,1125.68c10,10,26.51,13.08,39.16,6.74s20.14-21.84,16.73-35.58C3114.4,1094.74,3113.52,1092.52,3111.63,1091.47Z"/><path class="cls-13" d="M3154.87,1087.2a30.15,30.15,0,0,0-8.67.6c-3.28.55-6.62,1.13-9.54,2.7-5.45,2.94-8.56,8.86-10.83,14.62s-4.13,11.89-8.24,16.52-11.34,7.26-16.61,4l-2.42,15a41.15,41.15,0,0,0,15.78,7.84c15.69,4.37,33.81,2.33,46.19-8.24s16.94-30.47,7.8-43.94C3165.19,1091.69,3160.41,1087.9,3154.87,1087.2Z"/><path class="cls-13" d="M3183.94,1030.85c-8.23-24.86-32.37-41.78-57.69-48.48s-52-4.84-78.13-3a61.69,61.69,0,0,1,56.67,72.61,83,83,0,0,1,52.46-9.4c12.59,1.94,25.9,8,30.64,19.81l-4.51-24.92C3185.14,1035.94,3184.68,1033.1,3183.94,1030.85Z"/><path class="cls-13" d="M3029.44,1029.07a12.35,12.35,0,0,1-5-3.46c-1.82-2.32-2.15-5.49-1.85-8.42a23.28,23.28,0,0,1,11-17.34l-13,.17c-7.58,3.39-14.33,9.39-17,17.27s-.32,17.6,6.57,22.24c4.7,3.16,10.72,3.64,16.37,3.17a57.23,57.23,0,0,0,29.22-11C3046.89,1032.15,3037.64,1032.54,3029.44,1029.07Z"/></g><path class="cls-28" d="M3162.18,1110.24c-16.9-9.14-39-1.5-51.77,17-11.26.55-29.64-2.41-45.11-23.15-33.82,14-38.1-17.59-53.69-12.06s-19.26,36.68-47,32.75c0,0,17.87,93.14,27.61,113.67s39,37.83,61.06,27.59c-.39,12.36-6.51,22.07-12,26.84-2.27,2-4.45,3.1-6,3.2-5.48.38,1.45,58.53,27.05,61.51s68.45-56.89,109.11-63.83c-12.29-26.61-26.85-73.52-17.1-103.28.25-.78.45-1.56.65-2.34a51.66,51.66,0,0,0,18.83-19.9C3185.72,1146.13,3180.54,1120.17,3162.18,1110.24Z"/><g class="cls-53"><path class="cls-34" d="M3184.36,1089.38c-17.26-13.42-42.12-16.25-62-7.06l-6.84,34.52L3096,1045.39c-40.25-22.69-94.92-16-128.52,15.7-14.13,13.34-24.92,31.79-23.83,51.19.42,7.47,2.93,15.33,8.91,19.84,7.85,5.92,19.39,4.2,27.71-1s14.36-13.32,20.91-20.66c2.25-2.52,4.69-5,7.84-6.26,10.77-4.17,21.07,8.63,32.62,8.82,5.59.09,11.11-2.84,16.59-1.7,4.74,1,8.29,4.77,12.12,7.73,13.06,10.09,32.53,10.94,46.41,2l-1.11-4.06c17.69-8.43,41.07-2.25,52.28,13.83s8.89,40.21-5.19,53.88a115,115,0,0,0,34-45.45c2.81-6.78,5-14,4.5-21.37C3200.46,1106.51,3193.33,1096.35,3184.36,1089.38Z"/><path class="cls-34" d="M3176.85,1251.05,3157,1187.21a120.89,120.89,0,0,0-16.7,53.53c-.94,14,.54,28.17-2.49,41.82-2.76,12.44-9.16,23.8-16.61,34.13a175,175,0,0,1-63.68,54.08c-2.79,1.39-6.12,4.37-4.34,6.92.94,1.33,2.8,1.53,4.42,1.54,9.06,0,18-2.12,26.71-4.49a513.26,513.26,0,0,0,97.19-37.28c9.83-5,20.34-11.22,23.66-21.72,3.67-11.59-2.85-23.85-10.24-33.51S3178.71,1263.06,3176.85,1251.05Z"/></g><path class="cls-34" d="M3053.27,1266c-.39,12.36-6.51,22.07-12,26.84,18.45,1.54,62.53-22.54,67-77.23C3094.18,1246.16,3053.27,1266,3053.27,1266Z"/><path class="cls-36" d="M3135.33,1148.52a21.29,21.29,0,0,0-2.72,6.43,25.94,25.94,0,0,0-.71,6.82,31.25,31.25,0,0,0,.25,3.37c.15,1.11.36,2.21.59,3.29a40.91,40.91,0,0,0,5,12.12c-.72-4.3-1.51-8.47-1.86-12.61-.07-1-.13-2.06-.18-3.08s-.06-2,0-3a28.05,28.05,0,0,1,.8-5.9,20.46,20.46,0,0,1,5.62-10.09,29.51,29.51,0,0,1,10.51-6.48,20.46,20.46,0,0,0-12.55,4.1A19.5,19.5,0,0,0,3135.33,1148.52Z"/><path class="cls-36" d="M3149.88,1154.9a9.94,9.94,0,0,0-7.67-1.6,12,12,0,0,0-6.36,3.45,40.1,40.1,0,0,1,6.58-.32,10,10,0,0,1,5.16,1.76,15.81,15.81,0,0,1,4,4.25c1.18,1.73,2.26,3.66,3.43,5.74a14.11,14.11,0,0,0-.62-7.13A12.48,12.48,0,0,0,3149.88,1154.9Z"/><path class="cls-37" d="M3051.59,1119.06c-23.53,3.16-17,17-16.9,16.67,14.2-8,44.8-5.71,46.36-5C3080.4,1129.76,3073.77,1117.13,3051.59,1119.06Z"/><path class="cls-37" d="M3081.05,1130.74s0,.08.06.07S3081.1,1130.77,3081.05,1130.74Z"/><path class="cls-37" d="M2979.06,1145.42s0,0,0-.05S2979.06,1145.41,2979.06,1145.42Z"/><path class="cls-37" d="M2995.43,1134.49c-10.77,1.08-15.86,10.16-16.33,10.88.88-.64,16.45-5.45,22.39-1.65C3001.47,1143.94,3006.7,1134.07,2995.43,1134.49Z"/><path class="cls-37" d="M3047.94,1148.23c-3.93.88-6.06,6.27-4.77,12s5.51,9.76,9.44,8.88,6-6.27,4.76-12.05S3051.86,1147.36,3047.94,1148.23Z"/><path class="cls-37" d="M2998.2,1159.34c-3.11.69-4.59,5.94-3.3,11.72s4.86,9.9,8,9.2,4.59-5.94,3.3-11.72S3001.32,1158.64,2998.2,1159.34Z"/><path class="cls-38" d="M3078.18,1161a19.45,19.45,0,1,0,23.22,14.74A19.45,19.45,0,0,0,3078.18,1161Z"/><path class="cls-36" d="M3014.28,1189.75l-.62.62c0,.25,0,.49,0,.74Z"/><path class="cls-36" d="M3012.41,1207.08a5.29,5.29,0,0,1-2.39-2.24c-.81-1.7.25-4.15,1.68-6.24a34.37,34.37,0,0,1,5.22-5.9l.6-.54.05-.81c.37-5.28.6-10.56.63-15.85l0-4c0-1.32-.08-2.65-.11-4-.12-2.66-.25-5.32-.58-8-.65,2.61-1.09,5.23-1.53,7.85-.19,1.31-.41,2.62-.58,3.94l-.49,3.94c-.58,5-1,10-1.23,15.07l.62-.62-.66,1.36c0-.25,0-.49,0-.74a32.14,32.14,0,0,0-5,6.3,15.48,15.48,0,0,0-1.82,4.36,7.11,7.11,0,0,0,.66,5.22,7.52,7.52,0,0,0,4,3,16.5,16.5,0,0,0,4.39.9,36.36,36.36,0,0,0,8.55-.43,64.67,64.67,0,0,1-8.26-1.32A18.31,18.31,0,0,1,3012.41,1207.08Z"/><path class="cls-7" d="M3047.83,1221.73a98.16,98.16,0,0,0-29,4.38,3.63,3.63,0,0,0-1.15,6.34C3035.49,1245.65,3066.42,1221.73,3047.83,1221.73Z"/><path class="cls-7" d="M3081.77,1149.3l-51.7,11.38,4.59,20.84a7.58,7.58,0,0,0,7.38,5.93,7.45,7.45,0,0,0,1.62-.18l37-8.14a7.55,7.55,0,0,0,5.75-9Zm.21,24.37a3.57,3.57,0,0,1-2.23,1.56l-36.94,8.14a3.57,3.57,0,0,1-4.24-2.71l-3.73-16.93,43.88-9.66,3.73,16.92A3.51,3.51,0,0,1,3082,1173.67Z"/><path class="cls-7" d="M3011.64,1164.75,2960,1176.13l4.59,20.84a7.56,7.56,0,0,0,7.36,5.93,7.7,7.7,0,0,0,1.64-.18h0l36.94-8.14a7.56,7.56,0,0,0,5.75-9Zm-2,25.92-36.94,8.14h0a3.51,3.51,0,0,1-2.68-.47,3.57,3.57,0,0,1-1.56-2.23l-3.72-16.93,43.88-9.67,3.73,16.93A3.56,3.56,0,0,1,3009.62,1190.67Z"/><path class="cls-7" d="M3010,1172.26l3,2.6c8.4-9.86,19.47-4.65,19.94-4.43l.87-1.79-.88,1.79.88-1.79.89-1.8C3034.62,1166.77,3020.46,1160,3010,1172.26Z"/><path class="cls-7" d="M3112.68,1123.27,3079,1150.16l-.09.08a2,2,0,0,0,2.68,3l32-29a.66.66,0,0,0,.07-.89A.65.65,0,0,0,3112.68,1123.27Z"/><rect class="cls-54" x="1856.93" y="2069.17" width="91.41" height="154.29"/><rect class="cls-54" x="1991.57" y="2001.76" width="91.41" height="221.7"/><rect class="cls-54" x="2126.21" y="1897.05" width="91.41" height="326.41"/><path class="cls-55" d="M2171.45,1749.65l-47.4,18-47.39,18,38.58,25.43c-15.16,19.33-31,38-49.63,53.8-19.89,18.23-42.27,33.47-65.67,46.44a359.34,359.34,0,0,1-73.71,31,393.2,393.2,0,0,1-38.65,9.39,280.4,280.4,0,0,1-37.9,4.55l2.41,46c16.67-1.85,30.33-5,45-8.66a432.73,432.73,0,0,0,42.08-13.6,395.63,395.63,0,0,0,78.16-39.9c24.41-16,47.35-34.33,67.27-55.47,18.77-18.58,34.31-39.89,48.82-61.6l42.39,27.94-2.16-50.64Z"/><rect class="cls-56" x="986.96" y="1980.1" width="44.6" height="44.6"/><rect class="cls-56" x="897.75" y="2024.7" width="44.6" height="44.6"/><rect class="cls-54" x="942.35" y="1980.1" width="44.6" height="44.6"/><rect class="cls-57" x="902.54" y="1983.1" width="25.22" height="25.22"/><rect class="cls-57" x="1048.11" y="2037.45" width="25.22" height="25.22"/><rect class="cls-57" x="1006.34" y="2088.68" width="25.22" height="25.22"/><rect class="cls-54" x="986.96" y="2024.7" width="44.6" height="44.6"/><rect class="cls-57" x="986.96" y="1935.5" width="44.6" height="44.6"/><rect class="cls-54" x="1031.56" y="1980.1" width="44.6" height="44.6"/><rect class="cls-56" x="3223.83" y="910.79" width="69.69" height="69.69"/><rect class="cls-57" x="3293.52" y="841.1" width="69.69" height="69.69"/><rect class="cls-54" x="3231.32" y="845.79" width="39.41" height="39.41"/><rect class="cls-54" x="3458.76" y="930.72" width="39.41" height="39.41"/><rect class="cls-54" x="3393.5" y="1010.77" width="39.41" height="39.41"/><rect class="cls-56" x="3293.52" y="980.49" width="69.69" height="69.69"/><rect class="cls-57" x="3363.21" y="910.79" width="69.69" height="69.69"/><rect class="cls-56" x="3363.21" y="771.41" width="69.69" height="69.69"/><rect class="cls-54" x="3293.52" y="910.79" width="69.69" height="69.69"/><rect class="cls-57" x="3432.91" y="841.1" width="69.69" height="69.69"/><path class="cls-8" d="M1039,741.52c-68.8,14.05-113,82-98.77,151.75s81.56,114.93,150.36,100.88,113-82,98.77-151.75S1107.84,727.48,1039,741.52Z"/><path class="cls-9" d="M1071.53,745.75a119.92,119.92,0,0,0-54.23,9.38C972.19,774.39,943,820,944.09,869.77A125.42,125.42,0,0,0,946.6,892a123.51,123.51,0,0,0,11.19,31.92c24.34,47.38,77.45,74.88,131.53,63.84,65.3-13.34,107.27-77.82,93.76-144C1171.72,788.12,1124.9,749,1071.53,745.75Z"/><ellipse class="cls-8" cx="1064.83" cy="867.83" rx="95.1" ry="96.43" transform="translate(-152.1 230.58) rotate(-11.54)"/><path class="cls-10" d="M1152,842.78a91.44,91.44,0,0,0-8.44-18.45,92.65,92.65,0,0,0-19.92-23.4,91.38,91.38,0,0,0-37.13-18.88,89.69,89.69,0,0,0-39.35-.73c-49.29,10.06-81,58.75-70.78,108.72a92.69,92.69,0,0,0,53,66.27,90,90,0,0,0,49.56,6.92c1.74-.25,3.48-.56,5.21-.91,49.29-10.08,81-58.76,70.76-108.73A92.73,92.73,0,0,0,1152,842.78Z"/><path class="cls-8" d="M1085.37,861.18l-.06-.3c10.49-6.57,14-16.14,12.14-25.23a22.74,22.74,0,0,0-16.2-17.56,38.67,38.67,0,0,0-15.36-1.92l-3.18-15.56-10.63,2.17,3,14.72c-1.52.27-3.11.57-4.78.91-2.45.5-4.92,1.05-7.36,1.63l-3-14.78-10.63,2.17,3.14,15.36a107.9,107.9,0,0,0-11.17,3.76L1041.77,927c2.91-.15,6.84-.51,11.68-1.2l2.73,13.37,10.64-2.17-2.66-13,2.6-.52c3.41-.69,6.57-1.44,9.5-2.24l2.71,13.28,10.64-2.18-3-14.48c8.41-3.31,14.15-7.23,17.87-11.73a27.92,27.92,0,0,0,6-23.83C1107.86,869.08,1097.54,862,1085.37,861.18Zm-33.53-.11L1047,837.26a61.43,61.43,0,0,1,9.59-2.59c10.33-2.11,17,.79,18.58,8.54,1.55,7.58-3.86,13.89-15.83,16.34ZM1070,904.93a70.36,70.36,0,0,1-8.89,1.5l-5.88-28.82L1063,876c11.36-2.32,21.33-.09,23.43,10.22C1088.63,897,1080.31,902.83,1070,904.93Z"/><g class="cls-11"><path class="cls-12" d="M996.08,931.1a92.36,92.36,0,0,0,33.28,25.21l94.29-155.38a91.38,91.38,0,0,0-37.13-18.88Z"/></g><g class="cls-11"><path class="cls-12" d="M1058.9,963.86a90.41,90.41,0,0,0,20-.63L1152,842.78a91.44,91.44,0,0,0-8.44-18.45Z"/></g></g></svg>